<?xml version="1.0" encoding="UTF-8"?>
<svg xmlns="http://www.w3.org/2000/svg" xmlns:xlink="http://www.w3.org/1999/xlink" width="750px" height="750px" viewBox="0 0 750 750" version="1.1">
<defs>
<filter id="alpha" filterUnits="objectBoundingBox" x="0%" y="0%" width="100%" height="100%">
  <feColorMatrix type="matrix" in="SourceGraphic" values="0 0 0 0 1 0 0 0 0 1 0 0 0 0 1 0 0 0 1 0"/>
</filter>
<mask id="mask0">
  <g filter="url(#alpha)">
<rect x="0" y="0" width="750" height="750" style="fill:rgb(0%,0%,0%);fill-opacity:0.701961;stroke:none;"/>
  </g>
</mask>
<clipPath id="clip1">
  <rect x="0" y="0" width="750" height="750"/>
</clipPath>
<g id="surface5" clip-path="url(#clip1)">
<path style=" stroke:none;fill-rule:nonzero;fill:rgb(100%,100%,100%);fill-opacity:1;" d="M 534.585938 196.289062 C 534.585938 196.289062 474.195312 130.125 378.585938 133.289062 C 282.976562 136.453125 201.421875 200.566406 133.996094 250.726562 C 66.570312 300.886719 48.496094 378.796875 87.691406 439.621094 C 126.886719 500.445312 189.34375 474.839844 268.859375 514.320312 C 348.375 553.800781 363.480469 576.226562 452.054688 566.625 C 540.628906 557.023438 608.054688 458.835938 598.003906 354.238281 C 587.953125 249.644531 534.585938 196.289062 534.585938 196.289062 Z M 534.585938 196.289062 "/>
</g>
<mask id="mask1">
  <g filter="url(#alpha)">
<rect x="0" y="0" width="750" height="750" style="fill:rgb(0%,0%,0%);fill-opacity:0.301961;stroke:none;"/>
  </g>
</mask>
<clipPath id="clip2">
  <rect x="0" y="0" width="750" height="750"/>
</clipPath>
<g id="surface8" clip-path="url(#clip2)">
<path style=" stroke:none;fill-rule:nonzero;fill:rgb(100%,100%,100%);fill-opacity:1;" d="M 684.210938 588.660156 C 684.210938 579.6875 550.890625 572.414062 386.429688 572.414062 C 221.96875 572.414062 88.648438 579.6875 88.648438 588.660156 C 88.648438 597.632812 221.96875 604.90625 386.429688 604.90625 C 550.890625 604.90625 684.210938 597.632812 684.210938 588.660156 Z M 684.210938 588.660156 "/>
</g>
<mask id="mask2">
  <g filter="url(#alpha)">
<rect x="0" y="0" width="750" height="750" style="fill:rgb(0%,0%,0%);fill-opacity:0.501961;stroke:none;"/>
  </g>
</mask>
<clipPath id="clip3">
  <rect x="0" y="0" width="750" height="750"/>
</clipPath>
<g id="surface11" clip-path="url(#clip3)">
<path style=" stroke:none;fill-rule:nonzero;fill:rgb(100%,100%,100%);fill-opacity:1;" d="M 562.410156 343.800781 C 562.320312 343.800781 563.445312 338.203125 563.566406 337.800781 C 564.855469 333.808594 569.714844 326.851562 574.410156 326.863281 C 575.988281 326.910156 577.472656 327.625 578.496094 328.828125 C 579.515625 330.03125 579.976562 331.613281 579.765625 333.179688 C 579.421875 336.496094 576.449219 339.300781 573.765625 340.933594 C 570.613281 342.898438 562.410156 343.800781 562.410156 343.800781 Z M 562.410156 343.800781 "/>
<path style=" stroke:none;fill-rule:nonzero;fill:rgb(100%,100%,100%);fill-opacity:1;" d="M 553.304688 306.136719 C 557.730469 307.726562 559.933594 315.914062 559.785156 320.113281 C 559.785156 320.476562 558.945312 326.113281 558.871094 326.113281 L 558.78125 326.113281 C 559.125 327.40625 559.5 328.800781 559.875 330.316406 C 560.535156 333.136719 561.253906 336.316406 561.808594 339.855469 C 562.453125 343.652344 562.875 347.484375 563.070312 351.328125 C 563.308594 355.632812 563.164062 359.953125 562.636719 364.230469 C 562.625 364.28125 562.625 364.332031 562.636719 364.378906 C 563.21875 363.136719 564.945312 359.683594 565.109375 359.429688 C 567.421875 355.921875 573.929688 350.429688 578.476562 351.75 C 579.980469 352.214844 581.21875 353.296875 581.882812 354.726562 C 582.546875 356.15625 582.574219 357.800781 581.953125 359.25 C 580.753906 362.339844 577.15625 364.273438 574.140625 365.128906 C 570.734375 366.105469 563.144531 364.949219 562.546875 364.859375 C 561.90625 369.199219 560.972656 373.488281 559.753906 377.699219 C 559.054688 380.160156 558.296875 382.621094 557.476562 385.078125 C 558 384.015625 558.496094 383.070312 558.570312 382.933594 C 560.878906 379.425781 567.390625 373.933594 571.933594 375.238281 C 573.445312 375.699219 574.6875 376.78125 575.351562 378.210938 C 576.015625 379.644531 576.039062 381.289062 575.414062 382.738281 C 574.214844 385.84375 570.613281 387.765625 567.601562 388.636719 C 564.585938 389.503906 558.046875 388.636719 556.335938 388.410156 C 556.019531 389.339844 555.703125 390.285156 555.375 391.214844 C 553.875 395.714844 552.253906 400.214844 550.875 404.625 C 550.378906 406.125 549.945312 407.746094 549.511719 409.304688 C 549.988281 408.359375 550.394531 407.566406 550.46875 407.460938 C 552.765625 403.949219 559.289062 398.460938 563.820312 399.765625 C 565.328125 400.230469 566.566406 401.3125 567.230469 402.738281 C 567.898438 404.167969 567.925781 405.8125 567.316406 407.265625 C 566.113281 410.355469 562.5 412.289062 559.484375 413.144531 C 556.46875 414 550.574219 413.25 548.535156 412.964844 C 548.128906 414.585938 547.738281 416.191406 547.425781 417.765625 C 547.230469 418.84375 546.976562 419.878906 546.839844 420.976562 C 546.703125 422.070312 546.539062 423.136719 546.390625 424.183594 C 546.179688 426.238281 545.941406 428.371094 545.789062 430.378906 C 545.671875 431.773438 545.578125 433.109375 545.488281 434.445312 C 545.953125 432.945312 546.988281 429.855469 547.066406 429.601562 C 548.730469 426.304688 551.207031 423.484375 554.265625 421.410156 C 554.429688 421.035156 554.636719 420.675781 554.878906 420.34375 C 555.738281 419.019531 557.121094 418.125 558.679688 417.878906 C 560.238281 417.632812 561.828125 418.058594 563.054688 419.054688 C 566.625 422.054688 565.726562 430.574219 564.089844 434.445312 C 564 434.671875 562.664062 437.023438 561.808594 438.496094 C 562.453125 437.714844 563.054688 436.996094 563.730469 436.125 C 565.035156 434.535156 566.386719 432.976562 567.824219 431.296875 L 570.03125 428.910156 C 570.75 428.085938 571.621094 427.320312 572.414062 426.523438 C 574.289062 424.710938 576.285156 422.953125 578.339844 421.230469 C 576.929688 420.089844 572.023438 415.933594 570.613281 413.113281 C 569.203125 410.296875 568.199219 406.351562 569.671875 403.378906 C 570.320312 401.9375 571.554688 400.839844 573.0625 400.359375 C 574.570312 399.882812 576.210938 400.070312 577.574219 400.875 C 581.550781 403.363281 581.953125 411.839844 580.921875 415.875 C 580.921875 416.128906 579.78125 418.964844 579.164062 420.511719 C 580.410156 419.488281 581.640625 418.453125 582.929688 417.511719 C 586.648438 414.628906 590.503906 411.839844 594.328125 409.035156 L 597.824219 406.441406 C 597.328125 406.035156 591.390625 401.234375 589.800781 398.085938 C 588.40625 395.28125 587.386719 391.320312 588.855469 388.335938 C 589.507812 386.894531 590.742188 385.800781 592.25 385.324219 C 593.757812 384.84375 595.394531 385.03125 596.761719 385.828125 C 600.734375 388.335938 601.140625 396.808594 600.105469 400.828125 C 600.03125 401.144531 598.484375 405.226562 598.035156 406.246094 C 600.601562 404.324219 603.136719 402.40625 605.535156 400.410156 C 608.820312 397.726562 611.929688 394.832031 614.835938 391.738281 C 614.609375 391.558594 608.386719 386.578125 606.765625 383.339844 C 605.355469 380.535156 604.351562 376.574219 605.820312 373.605469 C 606.46875 372.164062 607.699219 371.066406 609.203125 370.585938 C 610.710938 370.109375 612.351562 370.296875 613.710938 371.101562 C 617.699219 373.589844 618.105469 382.066406 617.070312 386.101562 C 616.996094 386.355469 615.824219 389.476562 615.226562 390.945312 L 615.464844 391.078125 C 618.308594 387.894531 620.863281 384.460938 623.101562 380.820312 C 624.34375 378.839844 625.441406 376.875 626.460938 374.925781 C 625.199219 374.113281 619.515625 370.425781 617.730469 367.605469 C 615.945312 364.785156 614.59375 361.15625 615.71875 358.035156 C 616.210938 356.550781 617.300781 355.339844 618.730469 354.703125 C 620.15625 354.0625 621.785156 354.050781 623.21875 354.675781 C 627.464844 356.714844 628.785156 365.101562 628.199219 369.253906 C 628.199219 369.480469 627.601562 371.746094 627.164062 373.394531 C 627.601562 372.511719 628.078125 371.609375 628.484375 370.753906 C 629.984375 367.546875 631.261719 364.515625 632.308594 361.753906 C 632.910156 360.253906 633.40625 358.753906 633.808594 357.511719 C 632.984375 356.011719 629.773438 350.234375 629.460938 347.011719 C 629.144531 343.785156 629.65625 339.824219 632.101562 337.574219 C 633.226562 336.46875 634.773438 335.894531 636.347656 335.992188 C 637.925781 336.09375 639.386719 336.859375 640.363281 338.101562 C 643.183594 341.863281 640.5 349.90625 638.070312 353.339844 C 637.859375 353.625 634.035156 357.839844 633.988281 357.839844 L 633.988281 357.75 C 633.570312 359.023438 633.121094 360.390625 632.578125 361.859375 C 631.589844 364.574219 630.421875 367.648438 628.949219 370.859375 C 627.382812 374.378906 625.617188 377.804688 623.65625 381.121094 C 621.472656 384.835938 618.960938 388.347656 616.15625 391.621094 L 616.050781 391.738281 C 617.21875 391.003906 620.550781 389.101562 620.835938 388.980469 C 624.703125 387.328125 633.136719 386.386719 636.226562 389.941406 C 637.226562 391.160156 637.664062 392.746094 637.429688 394.308594 C 637.195312 395.867188 636.308594 397.257812 634.996094 398.128906 C 632.28125 400.050781 628.199219 399.628906 625.214844 398.714844 C 621.839844 397.648438 616.214844 392.503906 615.691406 392.101562 C 612.765625 395.363281 609.621094 398.425781 606.285156 401.265625 C 604.335938 402.945312 602.339844 404.566406 600.285156 406.15625 C 601.320312 405.570312 602.25 405.046875 602.386719 404.984375 C 606.238281 403.335938 614.671875 402.390625 617.761719 405.945312 C 618.765625 407.164062 619.207031 408.75 618.972656 410.3125 C 618.738281 411.875 617.847656 413.265625 616.53125 414.136719 C 613.828125 416.054688 609.75 415.636719 606.765625 414.71875 C 603.78125 413.804688 598.785156 409.484375 597.496094 408.328125 L 595.140625 410.144531 C 591.359375 413.039062 587.640625 415.90625 583.964844 418.828125 C 582.691406 419.863281 581.476562 420.929688 580.246094 421.980469 C 581.175781 421.453125 581.941406 421.019531 582.074219 420.976562 C 585.929688 419.308594 594.359375 418.378906 597.449219 421.921875 C 598.460938 423.136719 598.902344 424.726562 598.667969 426.289062 C 598.433594 427.855469 597.542969 429.242188 596.21875 430.109375 C 593.503906 432.03125 589.441406 431.609375 586.453125 430.710938 C 583.46875 429.808594 578.953125 425.878906 577.453125 424.515625 C 576.238281 425.640625 575.011719 426.75 573.886719 427.90625 C 573.121094 428.699219 572.386719 429.40625 571.636719 430.261719 C 570.886719 431.113281 570.136719 431.878906 569.476562 432.691406 C 568.171875 434.28125 566.804688 435.929688 565.558594 437.519531 C 564.691406 438.613281 563.878906 439.679688 563.070312 440.746094 C 564.316406 439.710938 566.835938 437.746094 567.058594 437.578125 C 570.613281 435.359375 578.804688 433.15625 582.40625 436.183594 C 583.582031 437.242188 584.253906 438.75 584.253906 440.332031 C 584.253906 441.914062 583.582031 443.421875 582.40625 444.480469 C 580.019531 446.773438 575.941406 447.03125 572.851562 446.550781 C 569.429688 446.011719 563.25 442.050781 562.484375 441.480469 C 561.136719 443.25 559.84375 444.988281 558.644531 446.65625 C 554.488281 452.398438 551.25 457.335938 549.03125 460.828125 L 548.804688 461.175781 L 545.925781 459.78125 C 546.074219 459.554688 546.226562 459.34375 546.375 459.105469 C 548.699219 455.625 552.089844 450.703125 556.410156 444.988281 C 557.773438 443.191406 559.261719 441.285156 560.804688 439.335938 C 559.195312 437.585938 557.695312 435.742188 556.304688 433.816406 C 552.988281 435.105469 546.105469 435.164062 545.21875 435.164062 C 545.085938 437.386719 544.964844 439.546875 544.875 441.585938 C 544.574219 448.679688 544.605469 454.589844 544.679688 458.714844 L 544.679688 459.210938 L 541.515625 457.710938 C 541.515625 453.613281 541.679688 448.050781 542.101562 441.496094 C 542.234375 439.230469 542.429688 436.816406 542.65625 434.355469 C 541.769531 434.128906 534.613281 432.285156 531.914062 430.125 C 529.46875 428.175781 526.890625 424.996094 526.980469 421.679688 C 526.964844 420.097656 527.621094 418.585938 528.789062 417.519531 C 529.960938 416.453125 531.527344 415.9375 533.101562 416.101562 C 537.765625 416.699219 541.664062 424.230469 542.445312 428.355469 C 542.445312 428.59375 542.683594 431.355469 542.773438 433.003906 C 542.878906 431.984375 542.953125 431.011719 543.058594 430.003906 C 543.269531 427.949219 543.539062 425.894531 543.824219 423.691406 C 543.988281 422.640625 544.171875 421.574219 544.335938 420.496094 C 544.5 419.414062 544.785156 418.304688 545.011719 417.195312 C 545.578125 414.644531 546.269531 412.078125 547.035156 409.515625 C 545.234375 409.320312 538.859375 408.570312 536.113281 407.011719 C 533.371094 405.449219 530.371094 402.691406 529.964844 399.40625 C 529.707031 397.84375 530.128906 396.246094 531.121094 395.011719 C 532.117188 393.78125 533.589844 393.03125 535.171875 392.953125 C 539.863281 392.835938 544.875 399.691406 546.253906 403.648438 C 546.34375 403.90625 547.019531 406.859375 547.351562 408.496094 C 547.828125 406.996094 548.28125 405.40625 548.851562 403.875 C 550.351562 399.375 552.046875 394.964844 553.695312 390.511719 C 554.203125 389.144531 554.683594 387.78125 555.195312 386.429688 C 554.550781 386.429688 546.945312 385.636719 543.886719 383.878906 C 541.171875 382.378906 538.140625 379.558594 537.71875 376.273438 C 537.472656 374.714844 537.894531 373.121094 538.886719 371.890625 C 539.878906 370.664062 541.347656 369.910156 542.925781 369.824219 C 547.636719 369.703125 552.644531 376.558594 554.023438 380.519531 C 554.128906 380.820312 555.089844 385.019531 555.285156 386.175781 C 556.363281 383.175781 557.429688 380.175781 558.285156 377.175781 C 559.554688 373.125 560.554688 368.996094 561.285156 364.816406 C 560.984375 364.816406 553.035156 364.066406 549.914062 362.265625 C 547.183594 360.765625 544.15625 357.945312 543.75 354.660156 C 543.5 353.101562 543.925781 351.507812 544.917969 350.277344 C 545.910156 349.046875 547.378906 348.296875 548.953125 348.210938 C 553.648438 348.105469 558.660156 354.945312 560.039062 358.90625 C 560.128906 359.175781 560.863281 362.414062 561.179688 363.960938 L 561.449219 363.960938 C 562.070312 359.734375 562.308594 355.464844 562.171875 351.195312 C 562.171875 348.839844 561.945312 346.605469 561.71875 344.414062 C 560.21875 344.414062 553.410156 344.414062 550.410156 343.125 C 547.410156 341.835938 544.214844 339.464844 543.433594 336.238281 C 543.015625 334.710938 543.265625 333.078125 544.125 331.746094 C 544.984375 330.414062 546.371094 329.511719 547.933594 329.265625 C 552.601562 328.636719 558.328125 334.890625 560.144531 338.683594 C 560.234375 338.894531 561.015625 341.101562 561.539062 342.703125 C 561.433594 341.730469 561.328125 340.710938 561.195312 339.78125 C 560.730469 336.253906 560.070312 333.046875 559.46875 330.226562 C 559.109375 328.621094 558.765625 327.226562 558.421875 325.828125 C 556.921875 325.078125 551.039062 321.988281 549.015625 319.484375 C 546.988281 316.980469 545.21875 313.394531 546.015625 310.171875 C 546.363281 308.613281 547.359375 307.28125 548.75 306.511719 C 550.144531 305.738281 551.804688 305.601562 553.304688 306.136719 Z M 553.304688 306.136719 "/>
<path style=" stroke:none;fill-rule:nonzero;fill:rgb(100%,100%,100%);fill-opacity:1;" d="M 638.324219 378.628906 C 634.648438 378.480469 627.300781 374.714844 627.300781 374.699219 C 627.300781 374.683594 631.246094 370.621094 631.53125 370.394531 C 634.816406 367.769531 642.703125 364.648438 646.621094 367.246094 C 647.910156 368.15625 648.753906 369.574219 648.941406 371.144531 C 649.125 372.714844 648.636719 374.292969 647.59375 375.480469 C 645.496094 378 641.460938 378.75 638.324219 378.628906 Z M 638.324219 378.628906 "/>
</g>
<mask id="mask3">
  <g filter="url(#alpha)">
<rect x="0" y="0" width="750" height="750" style="fill:rgb(0%,0%,0%);fill-opacity:0.4;stroke:none;"/>
  </g>
</mask>
<clipPath id="clip4">
  <rect x="0" y="0" width="750" height="750"/>
</clipPath>
<g id="surface14" clip-path="url(#clip4)">
<path style=" stroke:none;fill-rule:nonzero;fill:rgb(100%,100%,100%);fill-opacity:1;" d="M 595.410156 470.671875 C 595.410156 470.671875 573.105469 416.894531 560.625 419.234375 C 548.144531 421.574219 582 504.945312 582 504.945312 C 582 504.945312 542.761719 430.921875 516 430.921875 C 489.238281 430.921875 525.808594 512.746094 559.695312 540.015625 C 559.695312 540.015625 506.191406 482.355469 474.976562 494.820312 C 443.761719 507.285156 537.40625 565.726562 537.40625 565.726562 C 537.40625 565.726562 483 548.578125 489.238281 561.824219 C 495.480469 575.070312 512.429688 577.410156 512.429688 577.410156 L 450.929688 580.53125 L 664.980469 580.53125 L 616.816406 575.851562 C 616.816406 575.851562 666.765625 550.921875 653.386719 540.796875 C 640.003906 530.671875 610.574219 552.480469 610.574219 552.480469 C 610.574219 552.480469 661.410156 496.378906 651.601562 475.335938 C 641.789062 454.289062 598.078125 513.523438 598.078125 513.523438 C 598.078125 513.523438 633.765625 437.941406 626.578125 424.695312 C 619.394531 411.449219 595.410156 470.671875 595.410156 470.671875 Z M 595.410156 470.671875 "/>
</g>
</defs>
<g id="surface1">
<path style=" stroke:none;fill-rule:nonzero;fill:rgb(100%,75.686275%,0%);fill-opacity:1;" d="M 534.585938 196.289062 C 534.585938 196.289062 474.195312 130.125 378.585938 133.289062 C 282.976562 136.453125 201.421875 200.566406 133.996094 250.726562 C 66.570312 300.886719 48.496094 378.796875 87.691406 439.621094 C 126.886719 500.445312 189.34375 474.839844 268.859375 514.320312 C 348.375 553.800781 363.480469 576.226562 452.054688 566.625 C 540.628906 557.023438 608.054688 458.835938 598.003906 354.238281 C 587.953125 249.644531 534.585938 196.289062 534.585938 196.289062 Z M 534.585938 196.289062 "/>
<use xlink:href="#surface5" mask="url(#mask0)"/>
<path style=" stroke:none;fill-rule:nonzero;fill:rgb(100%,75.686275%,0%);fill-opacity:1;" d="M 684.210938 588.660156 C 684.210938 579.6875 550.890625 572.414062 386.429688 572.414062 C 221.96875 572.414062 88.648438 579.6875 88.648438 588.660156 C 88.648438 597.632812 221.96875 604.90625 386.429688 604.90625 C 550.890625 604.90625 684.210938 597.632812 684.210938 588.660156 Z M 684.210938 588.660156 "/>
<use xlink:href="#surface8" mask="url(#mask1)"/>
<path style=" stroke:none;fill-rule:nonzero;fill:rgb(100%,75.686275%,0%);fill-opacity:1;" d="M 562.410156 343.800781 C 562.320312 343.800781 563.445312 338.203125 563.566406 337.800781 C 564.855469 333.808594 569.714844 326.851562 574.410156 326.863281 C 575.988281 326.910156 577.472656 327.625 578.496094 328.828125 C 579.515625 330.03125 579.976562 331.613281 579.765625 333.179688 C 579.421875 336.496094 576.449219 339.300781 573.765625 340.933594 C 570.613281 342.898438 562.410156 343.800781 562.410156 343.800781 Z M 562.410156 343.800781 "/>
<path style=" stroke:none;fill-rule:nonzero;fill:rgb(100%,75.686275%,0%);fill-opacity:1;" d="M 553.304688 306.136719 C 557.730469 307.726562 559.933594 315.914062 559.785156 320.113281 C 559.785156 320.476562 558.945312 326.113281 558.871094 326.113281 L 558.78125 326.113281 C 559.125 327.40625 559.5 328.800781 559.875 330.316406 C 560.535156 333.136719 561.253906 336.316406 561.808594 339.855469 C 562.453125 343.652344 562.875 347.484375 563.070312 351.328125 C 563.308594 355.632812 563.164062 359.953125 562.636719 364.230469 C 562.625 364.28125 562.625 364.332031 562.636719 364.378906 C 563.21875 363.136719 564.945312 359.683594 565.109375 359.429688 C 567.421875 355.921875 573.929688 350.429688 578.476562 351.75 C 579.980469 352.214844 581.21875 353.296875 581.882812 354.726562 C 582.546875 356.15625 582.574219 357.800781 581.953125 359.25 C 580.753906 362.339844 577.15625 364.273438 574.140625 365.128906 C 570.734375 366.105469 563.144531 364.949219 562.546875 364.859375 C 561.90625 369.199219 560.972656 373.488281 559.753906 377.699219 C 559.054688 380.160156 558.296875 382.621094 557.476562 385.078125 C 558 384.015625 558.496094 383.070312 558.570312 382.933594 C 560.878906 379.425781 567.390625 373.933594 571.933594 375.238281 C 573.445312 375.699219 574.6875 376.78125 575.351562 378.210938 C 576.015625 379.644531 576.039062 381.289062 575.414062 382.738281 C 574.214844 385.84375 570.613281 387.765625 567.601562 388.636719 C 564.585938 389.503906 558.046875 388.636719 556.335938 388.410156 C 556.019531 389.339844 555.703125 390.285156 555.375 391.214844 C 553.875 395.714844 552.253906 400.214844 550.875 404.625 C 550.378906 406.125 549.945312 407.746094 549.511719 409.304688 C 549.988281 408.359375 550.394531 407.566406 550.46875 407.460938 C 552.765625 403.949219 559.289062 398.460938 563.820312 399.765625 C 565.328125 400.230469 566.566406 401.3125 567.230469 402.738281 C 567.898438 404.167969 567.925781 405.8125 567.316406 407.265625 C 566.113281 410.355469 562.5 412.289062 559.484375 413.144531 C 556.46875 414 550.574219 413.25 548.535156 412.964844 C 548.128906 414.585938 547.738281 416.191406 547.425781 417.765625 C 547.230469 418.84375 546.976562 419.878906 546.839844 420.976562 C 546.703125 422.070312 546.539062 423.136719 546.390625 424.183594 C 546.179688 426.238281 545.941406 428.371094 545.789062 430.378906 C 545.671875 431.773438 545.578125 433.109375 545.488281 434.445312 C 545.953125 432.945312 546.988281 429.855469 547.066406 429.601562 C 548.730469 426.304688 551.207031 423.484375 554.265625 421.410156 C 554.429688 421.035156 554.636719 420.675781 554.878906 420.34375 C 555.738281 419.019531 557.121094 418.125 558.679688 417.878906 C 560.238281 417.632812 561.828125 418.058594 563.054688 419.054688 C 566.625 422.054688 565.726562 430.574219 564.089844 434.445312 C 564 434.671875 562.664062 437.023438 561.808594 438.496094 C 562.453125 437.714844 563.054688 436.996094 563.730469 436.125 C 565.035156 434.535156 566.386719 432.976562 567.824219 431.296875 L 570.03125 428.910156 C 570.75 428.085938 571.621094 427.320312 572.414062 426.523438 C 574.289062 424.710938 576.285156 422.953125 578.339844 421.230469 C 576.929688 420.089844 572.023438 415.933594 570.613281 413.113281 C 569.203125 410.296875 568.199219 406.351562 569.671875 403.378906 C 570.320312 401.9375 571.554688 400.839844 573.0625 400.359375 C 574.570312 399.882812 576.210938 400.070312 577.574219 400.875 C 581.550781 403.363281 581.953125 411.839844 580.921875 415.875 C 580.921875 416.128906 579.78125 418.964844 579.164062 420.511719 C 580.410156 419.488281 581.640625 418.453125 582.929688 417.511719 C 586.648438 414.628906 590.503906 411.839844 594.328125 409.035156 L 597.824219 406.441406 C 597.328125 406.035156 591.390625 401.234375 589.800781 398.085938 C 588.40625 395.28125 587.386719 391.320312 588.855469 388.335938 C 589.507812 386.894531 590.742188 385.800781 592.25 385.324219 C 593.757812 384.84375 595.394531 385.03125 596.761719 385.828125 C 600.734375 388.335938 601.140625 396.808594 600.105469 400.828125 C 600.03125 401.144531 598.484375 405.226562 598.035156 406.246094 C 600.601562 404.324219 603.136719 402.40625 605.535156 400.410156 C 608.820312 397.726562 611.929688 394.832031 614.835938 391.738281 C 614.609375 391.558594 608.386719 386.578125 606.765625 383.339844 C 605.355469 380.535156 604.351562 376.574219 605.820312 373.605469 C 606.46875 372.164062 607.699219 371.066406 609.203125 370.585938 C 610.710938 370.109375 612.351562 370.296875 613.710938 371.101562 C 617.699219 373.589844 618.105469 382.066406 617.070312 386.101562 C 616.996094 386.355469 615.824219 389.476562 615.226562 390.945312 L 615.464844 391.078125 C 618.308594 387.894531 620.863281 384.460938 623.101562 380.820312 C 624.34375 378.839844 625.441406 376.875 626.460938 374.925781 C 625.199219 374.113281 619.515625 370.425781 617.730469 367.605469 C 615.945312 364.785156 614.59375 361.15625 615.71875 358.035156 C 616.210938 356.550781 617.300781 355.339844 618.730469 354.703125 C 620.15625 354.0625 621.785156 354.050781 623.21875 354.675781 C 627.464844 356.714844 628.785156 365.101562 628.199219 369.253906 C 628.199219 369.480469 627.601562 371.746094 627.164062 373.394531 C 627.601562 372.511719 628.078125 371.609375 628.484375 370.753906 C 629.984375 367.546875 631.261719 364.515625 632.308594 361.753906 C 632.910156 360.253906 633.40625 358.753906 633.808594 357.511719 C 632.984375 356.011719 629.773438 350.234375 629.460938 347.011719 C 629.144531 343.785156 629.65625 339.824219 632.101562 337.574219 C 633.226562 336.46875 634.773438 335.894531 636.347656 335.992188 C 637.925781 336.09375 639.386719 336.859375 640.363281 338.101562 C 643.183594 341.863281 640.5 349.90625 638.070312 353.339844 C 637.859375 353.625 634.035156 357.839844 633.988281 357.839844 L 633.988281 357.75 C 633.570312 359.023438 633.121094 360.390625 632.578125 361.859375 C 631.589844 364.574219 630.421875 367.648438 628.949219 370.859375 C 627.382812 374.378906 625.617188 377.804688 623.65625 381.121094 C 621.472656 384.835938 618.960938 388.347656 616.15625 391.621094 L 616.050781 391.738281 C 617.21875 391.003906 620.550781 389.101562 620.835938 388.980469 C 624.703125 387.328125 633.136719 386.386719 636.226562 389.941406 C 637.226562 391.160156 637.664062 392.746094 637.429688 394.308594 C 637.195312 395.867188 636.308594 397.257812 634.996094 398.128906 C 632.28125 400.050781 628.199219 399.628906 625.214844 398.714844 C 621.839844 397.648438 616.214844 392.503906 615.691406 392.101562 C 612.765625 395.363281 609.621094 398.425781 606.285156 401.265625 C 604.335938 402.945312 602.339844 404.566406 600.285156 406.15625 C 601.320312 405.570312 602.25 405.046875 602.386719 404.984375 C 606.238281 403.335938 614.671875 402.390625 617.761719 405.945312 C 618.765625 407.164062 619.207031 408.75 618.972656 410.3125 C 618.738281 411.875 617.847656 413.265625 616.53125 414.136719 C 613.828125 416.054688 609.75 415.636719 606.765625 414.71875 C 603.78125 413.804688 598.785156 409.484375 597.496094 408.328125 L 595.140625 410.144531 C 591.359375 413.039062 587.640625 415.90625 583.964844 418.828125 C 582.691406 419.863281 581.476562 420.929688 580.246094 421.980469 C 581.175781 421.453125 581.941406 421.019531 582.074219 420.976562 C 585.929688 419.308594 594.359375 418.378906 597.449219 421.921875 C 598.460938 423.136719 598.902344 424.726562 598.667969 426.289062 C 598.433594 427.855469 597.542969 429.242188 596.21875 430.109375 C 593.503906 432.03125 589.441406 431.609375 586.453125 430.710938 C 583.46875 429.808594 578.953125 425.878906 577.453125 424.515625 C 576.238281 425.640625 575.011719 426.75 573.886719 427.90625 C 573.121094 428.699219 572.386719 429.40625 571.636719 430.261719 C 570.886719 431.113281 570.136719 431.878906 569.476562 432.691406 C 568.171875 434.28125 566.804688 435.929688 565.558594 437.519531 C 564.691406 438.613281 563.878906 439.679688 563.070312 440.746094 C 564.316406 439.710938 566.835938 437.746094 567.058594 437.578125 C 570.613281 435.359375 578.804688 433.15625 582.40625 436.183594 C 583.582031 437.242188 584.253906 438.75 584.253906 440.332031 C 584.253906 441.914062 583.582031 443.421875 582.40625 444.480469 C 580.019531 446.773438 575.941406 447.03125 572.851562 446.550781 C 569.429688 446.011719 563.25 442.050781 562.484375 441.480469 C 561.136719 443.25 559.84375 444.988281 558.644531 446.65625 C 554.488281 452.398438 551.25 457.335938 549.03125 460.828125 L 548.804688 461.175781 L 545.925781 459.78125 C 546.074219 459.554688 546.226562 459.34375 546.375 459.105469 C 548.699219 455.625 552.089844 450.703125 556.410156 444.988281 C 557.773438 443.191406 559.261719 441.285156 560.804688 439.335938 C 559.195312 437.585938 557.695312 435.742188 556.304688 433.816406 C 552.988281 435.105469 546.105469 435.164062 545.21875 435.164062 C 545.085938 437.386719 544.964844 439.546875 544.875 441.585938 C 544.574219 448.679688 544.605469 454.589844 544.679688 458.714844 L 544.679688 459.210938 L 541.515625 457.710938 C 541.515625 453.613281 541.679688 448.050781 542.101562 441.496094 C 542.234375 439.230469 542.429688 436.816406 542.65625 434.355469 C 541.769531 434.128906 534.613281 432.285156 531.914062 430.125 C 529.46875 428.175781 526.890625 424.996094 526.980469 421.679688 C 526.964844 420.097656 527.621094 418.585938 528.789062 417.519531 C 529.960938 416.453125 531.527344 415.9375 533.101562 416.101562 C 537.765625 416.699219 541.664062 424.230469 542.445312 428.355469 C 542.445312 428.59375 542.683594 431.355469 542.773438 433.003906 C 542.878906 431.984375 542.953125 431.011719 543.058594 430.003906 C 543.269531 427.949219 543.539062 425.894531 543.824219 423.691406 C 543.988281 422.640625 544.171875 421.574219 544.335938 420.496094 C 544.5 419.414062 544.785156 418.304688 545.011719 417.195312 C 545.578125 414.644531 546.269531 412.078125 547.035156 409.515625 C 545.234375 409.320312 538.859375 408.570312 536.113281 407.011719 C 533.371094 405.449219 530.371094 402.691406 529.964844 399.40625 C 529.707031 397.84375 530.128906 396.246094 531.121094 395.011719 C 532.117188 393.78125 533.589844 393.03125 535.171875 392.953125 C 539.863281 392.835938 544.875 399.691406 546.253906 403.648438 C 546.34375 403.90625 547.019531 406.859375 547.351562 408.496094 C 547.828125 406.996094 548.28125 405.40625 548.851562 403.875 C 550.351562 399.375 552.046875 394.964844 553.695312 390.511719 C 554.203125 389.144531 554.683594 387.78125 555.195312 386.429688 C 554.550781 386.429688 546.945312 385.636719 543.886719 383.878906 C 541.171875 382.378906 538.140625 379.558594 537.71875 376.273438 C 537.472656 374.714844 537.894531 373.121094 538.886719 371.890625 C 539.878906 370.664062 541.347656 369.910156 542.925781 369.824219 C 547.636719 369.703125 552.644531 376.558594 554.023438 380.519531 C 554.128906 380.820312 555.089844 385.019531 555.285156 386.175781 C 556.363281 383.175781 557.429688 380.175781 558.285156 377.175781 C 559.554688 373.125 560.554688 368.996094 561.285156 364.816406 C 560.984375 364.816406 553.035156 364.066406 549.914062 362.265625 C 547.183594 360.765625 544.15625 357.945312 543.75 354.660156 C 543.5 353.101562 543.925781 351.507812 544.917969 350.277344 C 545.910156 349.046875 547.378906 348.296875 548.953125 348.210938 C 553.648438 348.105469 558.660156 354.945312 560.039062 358.90625 C 560.128906 359.175781 560.863281 362.414062 561.179688 363.960938 L 561.449219 363.960938 C 562.070312 359.734375 562.308594 355.464844 562.171875 351.195312 C 562.171875 348.839844 561.945312 346.605469 561.71875 344.414062 C 560.21875 344.414062 553.410156 344.414062 550.410156 343.125 C 547.410156 341.835938 544.214844 339.464844 543.433594 336.238281 C 543.015625 334.710938 543.265625 333.078125 544.125 331.746094 C 544.984375 330.414062 546.371094 329.511719 547.933594 329.265625 C 552.601562 328.636719 558.328125 334.890625 560.144531 338.683594 C 560.234375 338.894531 561.015625 341.101562 561.539062 342.703125 C 561.433594 341.730469 561.328125 340.710938 561.195312 339.78125 C 560.730469 336.253906 560.070312 333.046875 559.46875 330.226562 C 559.109375 328.621094 558.765625 327.226562 558.421875 325.828125 C 556.921875 325.078125 551.039062 321.988281 549.015625 319.484375 C 546.988281 316.980469 545.21875 313.394531 546.015625 310.171875 C 546.363281 308.613281 547.359375 307.28125 548.75 306.511719 C 550.144531 305.738281 551.804688 305.601562 553.304688 306.136719 Z M 553.304688 306.136719 "/>
<path style=" stroke:none;fill-rule:nonzero;fill:rgb(100%,75.686275%,0%);fill-opacity:1;" d="M 638.324219 378.628906 C 634.648438 378.480469 627.300781 374.714844 627.300781 374.699219 C 627.300781 374.683594 631.246094 370.621094 631.53125 370.394531 C 634.816406 367.769531 642.703125 364.648438 646.621094 367.246094 C 647.910156 368.15625 648.753906 369.574219 648.941406 371.144531 C 649.125 372.714844 648.636719 374.292969 647.59375 375.480469 C 645.496094 378 641.460938 378.75 638.324219 378.628906 Z M 638.324219 378.628906 "/>
<use xlink:href="#surface11" mask="url(#mask2)"/>
<path style=" stroke:none;fill-rule:nonzero;fill:rgb(100%,75.686275%,0%);fill-opacity:1;" d="M 595.410156 470.671875 C 595.410156 470.671875 573.105469 416.894531 560.625 419.234375 C 548.144531 421.574219 582 504.945312 582 504.945312 C 582 504.945312 542.761719 430.921875 516 430.921875 C 489.238281 430.921875 525.808594 512.746094 559.695312 540.015625 C 559.695312 540.015625 506.191406 482.355469 474.976562 494.820312 C 443.761719 507.285156 537.40625 565.726562 537.40625 565.726562 C 537.40625 565.726562 483 548.578125 489.238281 561.824219 C 495.480469 575.070312 512.429688 577.410156 512.429688 577.410156 L 450.929688 580.53125 L 664.980469 580.53125 L 616.816406 575.851562 C 616.816406 575.851562 666.765625 550.921875 653.386719 540.796875 C 640.003906 530.671875 610.574219 552.480469 610.574219 552.480469 C 610.574219 552.480469 661.410156 496.378906 651.601562 475.335938 C 641.789062 454.289062 598.078125 513.523438 598.078125 513.523438 C 598.078125 513.523438 633.765625 437.941406 626.578125 424.695312 C 619.394531 411.449219 595.410156 470.671875 595.410156 470.671875 Z M 595.410156 470.671875 "/>
<use xlink:href="#surface14" mask="url(#mask3)"/>
<path style="fill:none;stroke-width:1;stroke-linecap:round;stroke-linejoin:round;stroke:rgb(14.901961%,19.607843%,21.960784%);stroke-opacity:1;stroke-miterlimit:4;" d="M 401.700521 315.658854 C 388.609375 354.309896 388.609375 381.658854 388.609375 381.658854 C 388.609375 381.658854 404.070312 382.25 420.130208 370.359375 " transform="matrix(1.5,0,0,1.5,0,0)"/>
<path style="fill:none;stroke-width:1;stroke-linecap:round;stroke-linejoin:round;stroke:rgb(14.901961%,19.607843%,21.960784%);stroke-opacity:1;stroke-miterlimit:4;" d="M 395.158854 336.479167 C 392.460938 324.924479 388.880208 313.591146 384.450521 302.580729 " transform="matrix(1.5,0,0,1.5,0,0)"/>
<path style="fill:none;stroke-width:1;stroke-linecap:round;stroke-linejoin:round;stroke:rgb(14.901961%,19.607843%,21.960784%);stroke-opacity:1;stroke-miterlimit:4;" d="M 356.510417 313.880208 L 389.799479 363.229167 C 389.799479 363.229167 412.401042 344.229167 420.130208 333.5 " transform="matrix(1.5,0,0,1.5,0,0)"/>
<path style="fill:none;stroke-width:1;stroke-linecap:round;stroke-linejoin:round;stroke:rgb(14.901961%,19.607843%,21.960784%);stroke-opacity:1;stroke-miterlimit:4;" d="M 389.210938 375.130208 C 389.210938 375.130208 354.130208 358.479167 339.859375 349 " transform="matrix(1.5,0,0,1.5,0,0)"/>
<path style="fill-rule:nonzero;fill:rgb(100%,100%,100%);fill-opacity:1;stroke-width:1;stroke-linecap:round;stroke-linejoin:round;stroke:rgb(14.901961%,19.607843%,21.960784%);stroke-opacity:1;stroke-miterlimit:4;" d="M 250.880208 109 L 357.71875 109 C 362.09375 109 365.640625 112.546875 365.640625 116.919271 L 365.640625 379.098958 C 365.640625 383.473958 362.09375 387.020833 357.71875 387.020833 L 250.880208 387.020833 C 246.505208 387.020833 242.960938 383.473958 242.960938 379.098958 L 242.960938 116.919271 C 242.960938 112.546875 246.505208 109 250.880208 109 Z M 250.880208 109 " transform="matrix(1.5,0,0,1.5,0,0)"/>
<path style=" stroke:none;fill-rule:nonzero;fill:rgb(14.901961%,19.607843%,21.960784%);fill-opacity:1;" d="M 542.308594 236.503906 C 540.960938 236.503906 539.863281 235.410156 539.863281 234.058594 L 539.863281 201.285156 C 539.964844 200.003906 541.035156 199.015625 542.316406 199.015625 C 543.601562 199.015625 544.667969 200.003906 544.769531 201.285156 L 544.769531 234 C 544.78125 234.660156 544.527344 235.296875 544.066406 235.769531 C 543.601562 236.238281 542.96875 236.503906 542.308594 236.503906 Z M 542.308594 236.503906 "/>
<path style=" stroke:none;fill-rule:nonzero;fill:rgb(14.901961%,19.607843%,21.960784%);fill-opacity:1;" d="M 542.308594 266.863281 C 540.960938 266.863281 539.863281 265.769531 539.863281 264.421875 L 539.863281 246.105469 C 539.964844 244.824219 541.035156 243.835938 542.316406 243.835938 C 543.601562 243.835938 544.667969 244.824219 544.769531 246.105469 L 544.769531 264.421875 C 544.761719 265.773438 543.664062 266.863281 542.308594 266.863281 Z M 542.308594 266.863281 "/>
<path style="fill-rule:nonzero;fill:rgb(14.901961%,19.607843%,21.960784%);fill-opacity:1;stroke-width:1;stroke-linecap:round;stroke-linejoin:round;stroke:rgb(14.901961%,19.607843%,21.960784%);stroke-opacity:1;stroke-miterlimit:4;" d="M 241.630208 109 L 348.46875 109 C 352.84375 109 356.390625 112.546875 356.390625 116.919271 L 356.390625 379.098958 C 356.390625 383.473958 352.84375 387.020833 348.46875 387.020833 L 241.630208 387.020833 C 237.255208 387.020833 233.710938 383.473958 233.710938 379.098958 L 233.710938 116.919271 C 233.710938 112.546875 237.255208 109 241.630208 109 Z M 241.630208 109 " transform="matrix(1.5,0,0,1.5,0,0)"/>
<path style=" stroke:none;fill-rule:nonzero;fill:rgb(100%,75.686275%,0%);fill-opacity:1;" d="M 362.820312 191.265625 L 522.328125 191.265625 L 522.328125 548.953125 L 362.820312 548.953125 Z M 362.820312 191.265625 "/>
<path style="fill:none;stroke-width:3;stroke-linecap:round;stroke-linejoin:round;stroke:rgb(100%,100%,100%);stroke-opacity:1;stroke-miterlimit:4;" d="M 279.260417 119.890625 L 307.570312 119.890625 " transform="matrix(1.5,0,0,1.5,0,0)"/>
<path style=" stroke:none;fill-rule:nonzero;fill:rgb(100%,100%,100%);fill-opacity:1;" d="M 436.859375 561.613281 C 436.859375 564.539062 435.03125 566.910156 432.765625 566.910156 C 430.5 566.910156 428.683594 564.539062 428.683594 561.613281 C 428.683594 558.691406 430.515625 556.304688 432.765625 556.304688 C 435.015625 556.304688 436.859375 558.675781 436.859375 561.613281 Z M 436.859375 561.613281 "/>
<path style=" stroke:none;fill-rule:nonzero;fill:rgb(100%,100%,100%);fill-opacity:1;" d="M 470.234375 248.023438 C 470.234375 230.214844 457.851562 215.773438 442.574219 215.773438 C 427.296875 215.773438 414.914062 230.214844 414.914062 248.023438 C 414.914062 265.835938 427.296875 280.273438 442.574219 280.273438 C 457.851562 280.273438 470.234375 265.835938 470.234375 248.023438 Z M 470.234375 248.023438 "/>
<path style="fill-rule:nonzero;fill:rgb(14.901961%,19.607843%,21.960784%);fill-opacity:1;stroke-width:1;stroke-linecap:round;stroke-linejoin:round;stroke:rgb(14.901961%,19.607843%,21.960784%);stroke-opacity:1;stroke-miterlimit:4;" d="M 302.049479 156.908854 C 302.049479 152.398438 298.916667 148.739583 295.049479 148.739583 C 291.184896 148.739583 288.049479 152.398438 288.049479 156.908854 C 288.049479 161.421875 291.184896 165.080729 295.049479 165.080729 C 298.916667 165.080729 302.049479 161.421875 302.049479 156.908854 Z M 302.049479 156.908854 " transform="matrix(1.5,0,0,1.5,0,0)"/>
<path style="fill-rule:nonzero;fill:rgb(14.901961%,19.607843%,21.960784%);fill-opacity:1;stroke-width:1;stroke-linecap:round;stroke-linejoin:round;stroke:rgb(14.901961%,19.607843%,21.960784%);stroke-opacity:1;stroke-miterlimit:4;" d="M 295.049479 167.25 C 288.049479 167.25 282.320312 172.619792 282.320312 179.25 C 282.325521 179.867188 282.382812 180.481771 282.489583 181.091146 C 285.632812 184.757812 290.221354 186.867188 295.049479 186.867188 C 299.880208 186.867188 304.46875 184.757812 307.609375 181.091146 C 307.708333 180.481771 307.763021 179.867188 307.770833 179.25 C 307.770833 172.619792 302.070312 167.25 295.049479 167.25 Z M 295.049479 167.25 " transform="matrix(1.5,0,0,1.5,0,0)"/>
<path style=" stroke:none;fill-rule:nonzero;fill:rgb(14.901961%,19.607843%,21.960784%);fill-opacity:1;" d="M 476.203125 388.5 L 408.945312 388.5 C 405.238281 388.355469 402.351562 385.230469 402.496094 381.523438 L 402.496094 340.003906 C 402.496094 316.078125 420.496094 296.609375 442.574219 296.609375 C 464.65625 296.609375 482.640625 316.109375 482.640625 340.003906 L 482.640625 381.496094 C 482.71875 383.277344 482.082031 385.019531 480.875 386.332031 C 479.667969 387.644531 477.988281 388.425781 476.203125 388.5 Z M 415.378906 374.550781 L 469.753906 374.550781 L 469.753906 340.050781 C 469.753906 323.820312 457.558594 310.605469 442.574219 310.605469 C 427.589844 310.605469 415.378906 323.820312 415.378906 340.050781 Z M 415.378906 374.550781 "/>
<path style=" stroke:none;fill-rule:nonzero;fill:rgb(100%,100%,100%);fill-opacity:1;" d="M 395.878906 360.164062 L 489.269531 360.164062 L 489.269531 448.515625 L 395.878906 448.515625 Z M 395.878906 360.164062 "/>
<path style="fill-rule:nonzero;fill:rgb(14.901961%,19.607843%,21.960784%);fill-opacity:1;stroke-width:1;stroke-linecap:round;stroke-linejoin:round;stroke:rgb(14.901961%,19.607843%,21.960784%);stroke-opacity:1;stroke-miterlimit:4;" d="M 304.119792 280.658854 L 299.5 269.549479 C 301.572917 267.984375 302.778646 265.526042 302.75 262.929688 C 302.75 258.5 299.440104 254.929688 295.348958 254.929688 C 291.260417 254.929688 287.960938 258.510417 287.960938 262.929688 C 287.927083 265.526042 289.130208 267.981771 291.200521 269.549479 L 286.591146 280.658854 Z M 304.119792 280.658854 " transform="matrix(1.5,0,0,1.5,0,0)"/>
<path style=" stroke:none;fill-rule:nonzero;fill:rgb(100%,100%,100%);fill-opacity:1;" d="M 414.121094 527.910156 C 414.265625 528.015625 414.4375 528.074219 414.613281 528.074219 C 414.875 528.074219 415.117188 527.945312 415.261719 527.730469 L 522.328125 382.09375 L 522.328125 379.335938 L 414 526.769531 C 413.863281 526.9375 413.800781 527.152344 413.824219 527.363281 C 413.847656 527.578125 413.953125 527.773438 414.121094 527.910156 Z M 414.121094 527.910156 "/>
<path style=" stroke:none;fill-rule:nonzero;fill:rgb(100%,100%,100%);fill-opacity:1;" d="M 500.789062 243.734375 C 500.660156 243.910156 500.609375 244.128906 500.640625 244.34375 C 500.675781 244.558594 500.792969 244.75 500.96875 244.875 C 501.335938 245.136719 501.84375 245.054688 502.109375 244.695312 L 522.328125 217.199219 L 522.328125 214.5 Z M 500.789062 243.734375 "/>
<path style=" stroke:none;fill-rule:nonzero;fill:rgb(100%,100%,100%);fill-opacity:1;" d="M 362.820312 434.191406 L 495 254.445312 C 495.265625 254.082031 495.183594 253.570312 494.820312 253.304688 C 494.457031 253.039062 493.945312 253.121094 493.679688 253.484375 L 362.878906 431.429688 Z M 362.820312 434.191406 "/>
<path style=" stroke:none;fill-rule:nonzero;fill:rgb(100%,100%,100%);fill-opacity:1;" d="M 401.699219 545.640625 C 401.957031 545.636719 402.203125 545.515625 402.359375 545.308594 L 409.859375 535.171875 C 409.988281 534.996094 410.042969 534.777344 410.007812 534.5625 C 409.976562 534.347656 409.855469 534.15625 409.679688 534.03125 C 409.3125 533.769531 408.808594 533.851562 408.539062 534.210938 L 401.039062 544.335938 C 400.910156 544.507812 400.855469 544.726562 400.882812 544.9375 C 400.914062 545.152344 401.03125 545.347656 401.203125 545.476562 C 401.34375 545.585938 401.519531 545.644531 401.699219 545.640625 Z M 401.699219 545.640625 "/>
<path style=" stroke:none;fill-rule:nonzero;fill:rgb(100%,100%,100%);fill-opacity:1;" d="M 522.328125 411.253906 L 434.429688 530.820312 C 434.25 531.066406 434.222656 531.394531 434.363281 531.667969 C 434.5 531.941406 434.78125 532.113281 435.089844 532.109375 C 435.351562 532.113281 435.597656 531.992188 435.75 531.78125 L 522.328125 414 Z M 522.328125 411.253906 "/>
<path style="fill-rule:nonzero;fill:rgb(14.901961%,19.607843%,21.960784%);fill-opacity:1;stroke-width:1;stroke-linecap:round;stroke-linejoin:round;stroke:rgb(14.901961%,19.607843%,21.960784%);stroke-opacity:1;stroke-miterlimit:4;" d="M 142.408854 162.140625 C 143.401042 159.942708 143.880208 157.549479 143.809896 155.140625 C 143.809896 150.669271 138.401042 148.080729 132.039062 147.369792 C 125.679688 146.658854 122.859375 149.25 123.799479 150.901042 C 124.776042 152.260417 125.96875 153.453125 127.330729 154.429688 C 127.330729 154.429688 120.96875 150.901042 116.729167 153.729167 C 112.489583 156.559896 118.619792 155.380208 117.440104 158.200521 C 116.260417 161.020833 109.669271 159.848958 108.020833 167.380208 C 106.369792 174.908854 111.080729 182.450521 106.841146 185.75 C 102.598958 189.049479 89.841146 184.570312 86.119792 192.809896 C 82.401042 201.049479 87.679688 204.710938 78.739583 209.890625 C 69.799479 215.070312 63.28125 220.130208 65.869792 232.841146 C 68.460938 245.549479 76.940104 250 93.658854 245.510417 C 110.380208 241.020833 109.200521 230.908854 114.658854 220.510417 C 120.119792 210.109375 128.559896 212.270833 131.151042 206.380208 C 133.739583 200.489583 130.440104 193.429688 130.679688 188.010417 C 130.919271 182.591146 136.330729 181.419271 138.450521 175.010417 C 140.570312 168.598958 142.408854 162.140625 142.408854 162.140625 Z M 142.408854 162.140625 " transform="matrix(1.5,0,0,1.5,0,0)"/>
<path style="fill:none;stroke-width:0.5;stroke-linecap:round;stroke-linejoin:round;stroke:rgb(100%,100%,100%);stroke-opacity:1;stroke-miterlimit:4;" d="M 67.820312 232.598958 C 67.380208 233.484375 67.158854 234.460938 67.169271 235.450521 " transform="matrix(1.5,0,0,1.5,0,0)"/>
<path style="fill:none;stroke-width:0.5;stroke-linecap:round;stroke-linejoin:round;stroke:rgb(100%,100%,100%);stroke-opacity:1;stroke-miterlimit:4;" d="M 133.369792 157.46875 C 133.369792 157.46875 130.429688 154.070312 136.091146 155.651042 C 143.21875 157.651042 134.848958 165.901042 131.630208 167.559896 C 125.169271 170.869792 116.630208 169.809896 111.630208 175.830729 C 107.091146 181.270833 113.21875 186.940104 110.5 191.25 C 107.78125 195.559896 96.890625 193.059896 93.270833 198.25 C 89.651042 203.440104 99.841146 214.580729 89.408854 220.700521 C 81.869792 225.130208 73.609375 226.830729 69.619792 230.341146 " transform="matrix(1.5,0,0,1.5,0,0)"/>
<path style="fill:none;stroke-width:0.5;stroke-linecap:round;stroke-linejoin:round;stroke:rgb(100%,100%,100%);stroke-opacity:1;stroke-miterlimit:4;" d="M 116.460938 177.591146 C 115.841146 179.036458 115.653646 180.630208 115.919271 182.179688 C 116.820312 186.03125 122.039062 193.289062 117.28125 197.369792 C 112.520833 201.450521 104.348958 201.21875 103 206 C 101.651042 210.78125 104.359375 223.908854 99.830729 230 C 95.299479 236.091146 86.450521 235.669271 81.690104 239.75 C 76.929688 243.830729 77.609375 246.098958 77.609375 246.098958 " transform="matrix(1.5,0,0,1.5,0,0)"/>
<path style="fill:none;stroke-width:0.5;stroke-linecap:round;stroke-linejoin:round;stroke:rgb(100%,100%,100%);stroke-opacity:1;stroke-miterlimit:4;" d="M 118.859375 173.109375 C 118.447917 173.692708 118.067708 174.296875 117.71875 174.919271 " transform="matrix(1.5,0,0,1.5,0,0)"/>
<path style="fill-rule:nonzero;fill:rgb(100%,100%,100%);fill-opacity:1;stroke-width:1;stroke-linecap:round;stroke-linejoin:round;stroke:rgb(14.901961%,19.607843%,21.960784%);stroke-opacity:1;stroke-miterlimit:4;" d="M 145.460938 232.239583 L 146.609375 241.239583 C 146.609375 241.239583 152.609375 247.239583 157.020833 250.950521 C 161.429688 254.658854 172.729167 262.510417 172.729167 262.510417 L 167 264.140625 C 167 264.140625 148.270833 253.039062 144.570312 252.140625 C 140.869792 251.239583 138.098958 245.901042 136.950521 244.28125 C 135.799479 242.658854 142.450521 230.619792 145.460938 232.239583 Z M 145.460938 232.239583 " transform="matrix(1.5,0,0,1.5,0,0)"/>
<path style="fill-rule:nonzero;fill:rgb(100%,100%,100%);fill-opacity:1;stroke-width:1;stroke-linecap:round;stroke-linejoin:round;stroke:rgb(14.901961%,19.607843%,21.960784%);stroke-opacity:1;stroke-miterlimit:4;" d="M 156.901042 378.669271 C 156.901042 378.669271 162.559896 383.450521 164.901042 385.049479 C 167.239583 386.651042 169.96875 387.369792 169.539062 388.239583 C 169.109375 389.109375 167.940104 389.979167 162.429688 389.239583 C 156.919271 388.5 155.330729 386.630208 154.309896 386.341146 C 153.289062 386.049479 150.830729 386.78125 148.950521 385.619792 C 147.070312 384.460938 150.049479 377.549479 150.049479 377.549479 C 151.755208 379.544271 154.648438 380.015625 156.901042 378.669271 Z M 156.901042 378.669271 " transform="matrix(1.5,0,0,1.5,0,0)"/>
<path style="fill-rule:nonzero;fill:rgb(100%,100%,100%);fill-opacity:1;stroke-width:1;stroke-linecap:round;stroke-linejoin:round;stroke:rgb(14.901961%,19.607843%,21.960784%);stroke-opacity:1;stroke-miterlimit:4;" d="M 169.520833 388.239583 C 169.523438 388.192708 169.523438 388.145833 169.520833 388.098958 C 166.338542 388.393229 163.130208 388.091146 160.059896 387.210938 C 156.5 386.369792 155.450521 384.479167 152.059896 384.479167 C 150.729167 384.492188 149.40625 384.276042 148.151042 383.841146 C 148.075521 384.518229 148.341146 385.1875 148.859375 385.630208 C 150.739583 386.789062 153.210938 386.059896 154.21875 386.348958 C 155.229167 386.640625 156.830729 388.53125 162.341146 389.25 C 167.848958 389.96875 169.080729 389.109375 169.520833 388.239583 Z M 169.520833 388.239583 " transform="matrix(1.5,0,0,1.5,0,0)"/>
<path style="fill-rule:nonzero;fill:rgb(100%,100%,100%);fill-opacity:1;stroke-width:1;stroke-linecap:round;stroke-linejoin:round;stroke:rgb(14.901961%,19.607843%,21.960784%);stroke-opacity:1;stroke-miterlimit:4;" d="M 127.270833 185.401042 C 127.270833 185.401042 128.359375 192.739583 126.960938 195.700521 C 125.559896 198.658854 121.179688 198.979167 117.440104 199.609375 C 113.700521 200.239583 105.109375 203.510417 106.039062 211.940104 C 106.96875 220.369792 117.75 238.630208 117.75 243.78125 C 117.75 248.929688 114.46875 251.580729 110.880208 261.570312 C 107.289062 271.559896 107.760417 290.140625 108.880208 302.158854 C 109.700521 310.09375 111.268229 317.932292 113.559896 325.570312 C 113.559896 325.570312 104.559896 340.091146 100.559896 346.330729 C 96.559896 352.570312 82.559896 379.739583 82.559896 379.739583 C 82.559896 379.739583 82.559896 380.669271 84.739583 381.299479 C 86.273438 381.671875 87.859375 381.778646 89.429688 381.609375 C 89.429688 381.609375 116.270833 349.299479 121.270833 343.841146 C 126.270833 338.380208 130.950521 328.841146 131.570312 324.479167 C 132.190104 320.119792 131.419271 293.419271 131.419271 293.419271 C 131.419271 293.419271 137.03125 306.841146 141.419271 313.710938 C 144.083333 317.914062 146.526042 322.252604 148.739583 326.710938 C 148.125 332.359375 148.125 338.059896 148.739583 343.710938 C 149.830729 351.510417 148.908854 376.570312 150 378.598958 C 151.091146 380.630208 155.320312 379.78125 156.260417 378.848958 C 157.200521 377.919271 157.640625 371.848958 157.640625 371.848958 C 157.640625 371.848958 159.510417 352.848958 160.640625 343.908854 C 161.770833 334.96875 163.640625 327.359375 162.989583 325.330729 C 162.341146 323.299479 158.460938 301.598958 155.489583 291.330729 C 152.520833 281.059896 143.489583 261.830729 141.489583 256.841146 C 139.489583 251.848958 138.359375 247.309896 138.679688 245.75 C 139 244.190104 145.080729 234.830729 146.679688 232.330729 C 148.528646 228.893229 148.645833 224.783854 146.989583 221.25 C 145.119792 217.190104 146.989583 211.71875 146.679688 208.450521 C 146.369792 205.179688 141.53125 203.760417 139.03125 202.520833 C 136.53125 201.28125 135.591146 198.460938 135.591146 196.119792 C 135.742188 194.148438 136.21875 192.216146 137 190.401042 C 137 190.401042 129.299479 185.401042 127.270833 185.401042 Z M 127.270833 185.401042 " transform="matrix(1.5,0,0,1.5,0,0)"/>
<path style="fill:none;stroke-width:1;stroke-linecap:round;stroke-linejoin:round;stroke:rgb(14.901961%,19.607843%,21.960784%);stroke-opacity:1;stroke-miterlimit:4;" d="M 146.190104 218.789062 C 145.367188 216.700521 144.682292 214.559896 144.140625 212.380208 " transform="matrix(1.5,0,0,1.5,0,0)"/>
<path style="fill:none;stroke-width:1;stroke-linecap:round;stroke-linejoin:round;stroke:rgb(14.901961%,19.607843%,21.960784%);stroke-opacity:1;stroke-miterlimit:4;" d="M 125.919271 236.169271 C 125.919271 236.169271 128.739583 236.789062 134.390625 233.96875 " transform="matrix(1.5,0,0,1.5,0,0)"/>
<path style="fill-rule:nonzero;fill:rgb(14.901961%,19.607843%,21.960784%);fill-opacity:1;stroke-width:1;stroke-linecap:round;stroke-linejoin:round;stroke:rgb(14.901961%,19.607843%,21.960784%);stroke-opacity:1;stroke-miterlimit:4;" d="M 155.520833 291.229167 C 152.690104 281.390625 144.299479 263.419271 141.789062 257.489583 C 129.789062 261.989583 118.570312 258.151042 113.299479 255.669271 C 112.539062 257.330729 111.71875 259.25 110.880208 261.570312 C 107.289062 271.570312 107.760417 290.140625 108.880208 302.158854 C 109.700521 310.09375 111.268229 317.932292 113.559896 325.570312 C 113.559896 325.570312 104.559896 340.091146 100.559896 346.330729 C 96.559896 352.570312 82.559896 379.739583 82.559896 379.739583 C 82.559896 379.739583 82.559896 380.669271 84.739583 381.299479 C 86.273438 381.671875 87.859375 381.778646 89.429688 381.609375 C 89.429688 381.609375 116.270833 349.299479 121.270833 343.841146 C 126.270833 338.380208 130.950521 328.841146 131.570312 324.479167 C 132.190104 320.119792 131.419271 293.419271 131.419271 293.419271 C 131.419271 293.419271 137.03125 306.841146 141.419271 313.710938 C 144.083333 317.914062 146.526042 322.252604 148.739583 326.710938 C 148.125 332.359375 148.125 338.059896 148.739583 343.710938 C 149.830729 351.510417 148.908854 376.570312 150 378.598958 C 151.091146 380.630208 155.320312 379.78125 156.260417 378.848958 C 157.200521 377.919271 157.640625 371.848958 157.640625 371.848958 C 157.640625 371.848958 159.510417 352.848958 160.640625 343.908854 C 161.770833 334.96875 163.640625 327.359375 162.989583 325.330729 C 162.341146 323.299479 158.489583 301.53125 155.520833 291.229167 Z M 155.520833 291.229167 " transform="matrix(1.5,0,0,1.5,0,0)"/>
<path style="fill-rule:nonzero;fill:rgb(100%,75.686275%,0%);fill-opacity:1;stroke-width:1;stroke-linecap:round;stroke-linejoin:round;stroke:rgb(14.901961%,19.607843%,21.960784%);stroke-opacity:1;stroke-miterlimit:4;" d="M 216.658854 281.320312 L 216.658854 279.28125 L 218.369792 279.28125 L 218.369792 263.260417 L 198.070312 263.260417 L 198.070312 279.28125 L 199.78125 279.28125 L 199.78125 281.320312 L 198.059896 281.320312 L 198.059896 285.039062 L 204.651042 285.039062 L 204.651042 283.789062 L 211.789062 283.789062 L 211.789062 285.039062 L 218.380208 285.039062 L 218.380208 281.320312 Z M 216.658854 281.320312 " transform="matrix(1.5,0,0,1.5,0,0)"/>
<path style="fill-rule:nonzero;fill:rgb(100%,75.686275%,0%);fill-opacity:1;stroke-width:1;stroke-linecap:round;stroke-linejoin:round;stroke:rgb(14.901961%,19.607843%,21.960784%);stroke-opacity:1;stroke-miterlimit:4;" d="M 107.559896 258.46875 L 225.320312 258.46875 C 226.302083 258.46875 227.098958 259.268229 227.098958 260.25 L 227.098958 263.830729 C 227.098958 264.8125 226.302083 265.609375 225.320312 265.609375 L 107.559896 265.609375 L 107.559896 258.460938 Z M 107.559896 258.46875 " transform="matrix(1.5,0,0,1.5,0,0)"/>
<path style="fill-rule:nonzero;fill:rgb(100%,75.686275%,0%);fill-opacity:1;stroke-width:1;stroke-linecap:round;stroke-linejoin:round;stroke:rgb(14.901961%,19.607843%,21.960784%);stroke-opacity:1;stroke-miterlimit:4;" d="M 184.908854 257.401042 L 192.080729 257.401042 C 192.627604 257.401042 193.070312 257.84375 193.070312 258.390625 L 193.070312 265.700521 C 193.070312 266.247396 192.627604 266.690104 192.080729 266.690104 L 184.908854 266.690104 C 184.361979 266.690104 183.919271 266.247396 183.919271 265.700521 L 183.919271 258.390625 C 183.919271 257.84375 184.361979 257.401042 184.908854 257.401042 Z M 184.908854 257.401042 " transform="matrix(1.5,0,0,1.5,0,0)"/>
<path style="fill-rule:nonzero;fill:rgb(100%,75.686275%,0%);fill-opacity:1;stroke-width:1;stroke-linecap:round;stroke-linejoin:round;stroke:rgb(14.901961%,19.607843%,21.960784%);stroke-opacity:1;stroke-miterlimit:4;" d="M 111.489133 262.040916 C 111.489164 272.306047 103.16768 280.630035 92.899979 280.630487 C 82.632278 280.630938 74.310439 272.306464 74.309988 262.038763 C 74.309957 251.773632 82.63401 243.449223 92.899142 243.449192 C 103.166843 243.448741 111.491252 251.772794 111.489133 262.040916 Z M 111.489133 262.040916 " transform="matrix(0.242406,-1.480284,1.480284,0.242406,-271.065,467.07)"/>
<path style="fill-rule:nonzero;fill:rgb(100%,100%,100%);fill-opacity:1;stroke-width:1;stroke-linecap:round;stroke-linejoin:round;stroke:rgb(14.901961%,19.607843%,21.960784%);stroke-opacity:1;stroke-miterlimit:4;" d="M 96.71875 262 C 98.916667 260.947917 100.341146 258.755208 100.408854 256.320312 C 100.408854 252.669271 97.049479 249.710938 92.901042 249.710938 C 88.75 249.710938 85.390625 252.710938 85.390625 256.320312 C 85.453125 258.757812 86.880208 260.950521 89.080729 262 C 86.880208 263.054688 85.455729 265.252604 85.390625 267.690104 C 85.390625 271.341146 88.75 274.299479 92.901042 274.299479 C 97.049479 274.299479 100.408854 271.299479 100.408854 267.690104 C 100.338542 265.252604 98.916667 263.059896 96.71875 262 Z M 96.71875 262 " transform="matrix(1.5,0,0,1.5,0,0)"/>
<path style="fill-rule:nonzero;fill:rgb(100%,100%,100%);fill-opacity:1;stroke-width:1;stroke-linecap:round;stroke-linejoin:round;stroke:rgb(14.901961%,19.607843%,21.960784%);stroke-opacity:1;stroke-miterlimit:4;" d="M 169.059896 265.770833 C 169.059896 265.770833 174.880208 268.229167 176.679688 268.229167 C 178.479167 268.229167 180.559896 266.419271 181.591146 264.229167 C 182.619792 262.039062 182.591146 261 181.979167 261.520833 L 180.690104 262.520833 C 180.690104 262.520833 181.690104 260.330729 180.559896 260.591146 C 179.778646 260.851562 179.127604 261.40625 178.75 262.140625 C 178.75 262.140625 178.619792 260.200521 177.591146 261.140625 C 176.908854 261.757812 176.302083 262.453125 175.78125 263.210938 C 175.78125 263.210938 175.651042 260.760417 175 261.401042 C 174.348958 262.039062 171.908854 265.53125 171.908854 265.53125 Z M 169.059896 265.770833 " transform="matrix(1.5,0,0,1.5,0,0)"/>
<path style="fill-rule:nonzero;fill:rgb(100%,100%,100%);fill-opacity:1;stroke-width:1;stroke-linecap:round;stroke-linejoin:round;stroke:rgb(14.901961%,19.607843%,21.960784%);stroke-opacity:1;stroke-miterlimit:4;" d="M 175.78125 263.190104 C 175.78125 263.190104 175.390625 266.289062 173.460938 266.809896 " transform="matrix(1.5,0,0,1.5,0,0)"/>
<path style="fill-rule:nonzero;fill:rgb(100%,100%,100%);fill-opacity:1;stroke-width:1;stroke-linecap:round;stroke-linejoin:round;stroke:rgb(14.901961%,19.607843%,21.960784%);stroke-opacity:1;stroke-miterlimit:4;" d="M 178.75 262.158854 C 178.75 262.158854 177.75 267.059896 176.169271 267.841146 " transform="matrix(1.5,0,0,1.5,0,0)"/>
<path style="fill-rule:nonzero;fill:rgb(100%,100%,100%);fill-opacity:1;stroke-width:1;stroke-linecap:round;stroke-linejoin:round;stroke:rgb(14.901961%,19.607843%,21.960784%);stroke-opacity:1;stroke-miterlimit:4;" d="M 180.690104 262.539062 C 180.174479 264.328125 179.481771 266.059896 178.619792 267.710938 " transform="matrix(1.5,0,0,1.5,0,0)"/>
<path style="fill-rule:nonzero;fill:rgb(100%,100%,100%);fill-opacity:1;stroke-width:1;stroke-linecap:round;stroke-linejoin:round;stroke:rgb(14.901961%,19.607843%,21.960784%);stroke-opacity:1;stroke-miterlimit:4;" d="M 138.658854 202.21875 C 136.611979 200.835938 135.429688 198.489583 135.539062 196.020833 C 135.71875 194.080729 136.213542 192.182292 137 190.401042 C 137 190.401042 129.348958 185.401042 127.320312 185.401042 C 127.320312 185.401042 128.408854 192.739583 127.010417 195.700521 C 126.552083 196.619792 125.802083 197.364583 124.880208 197.820312 C 126.729167 202.796875 129.234375 207.505208 132.330729 211.820312 C 135.140625 215.348958 136.510417 207.908854 138.658854 202.21875 Z M 138.658854 202.21875 " transform="matrix(1.5,0,0,1.5,0,0)"/>
<path style="fill-rule:nonzero;fill:rgb(100%,100%,100%);fill-opacity:1;stroke-width:1;stroke-linecap:round;stroke-linejoin:round;stroke:rgb(14.901961%,19.607843%,21.960784%);stroke-opacity:1;stroke-miterlimit:4;" d="M 115.049479 200.619792 C 111.182292 201.28125 107.848958 203.721354 106.049479 207.210938 C 102.96875 213.151042 89.510417 240.109375 90.658854 241.71875 C 97.200521 250.919271 120.989583 257.539062 123.408854 259.960938 C 125.828125 262.489583 128.484375 264.783854 131.341146 266.809896 C 133.760417 268.348958 138.591146 267.690104 139.46875 267.25 C 140.348958 266.809896 141.010417 264.830729 139.46875 264.830729 C 138.257812 264.846354 137.197917 264.013021 136.929688 262.830729 C 136.710938 261.950521 139.348958 263.710938 140.669271 263.049479 C 141.989583 262.390625 137.71875 259.979167 136.401042 258.880208 C 135.080729 257.78125 133.979167 256.25 132.21875 256.25 C 130.460938 256.25 127.151042 256.25 127.151042 256.25 C 127.151042 256.25 119.049479 250.380208 114.151042 246.010417 C 110.338542 242.570312 106.177083 239.533854 101.739583 236.950521 L 116.591146 212.520833 " transform="matrix(1.5,0,0,1.5,0,0)"/>
<path style="fill-rule:nonzero;fill:rgb(100%,100%,100%);fill-opacity:1;stroke-width:1;stroke-linecap:round;stroke-linejoin:round;stroke:rgb(14.901961%,19.607843%,21.960784%);stroke-opacity:1;stroke-miterlimit:4;" d="M 136.390625 258.890625 C 135.070312 257.789062 133.96875 256.260417 132.210938 256.260417 C 130.450521 256.260417 127.140625 256.260417 127.140625 256.260417 C 127.140625 256.260417 119.039062 250.390625 114.140625 246.020833 C 110.328125 242.580729 106.169271 239.544271 101.729167 236.960938 L 107.669271 227.179688 C 104.632812 225.341146 101.158854 224.351562 97.609375 224.309896 C 93.609375 232.651042 90.020833 240.890625 90.609375 241.760417 C 97.151042 250.960938 120.940104 257.580729 123.359375 260 C 125.778646 262.53125 128.434896 264.825521 131.289062 266.848958 C 133.710938 268.390625 138.539062 267.729167 139.419271 267.289062 C 140.299479 266.848958 140.960938 264.869792 139.419271 264.869792 C 138.208333 264.885417 137.148438 264.052083 136.880208 262.869792 C 136.658854 261.989583 139.299479 263.75 140.619792 263.091146 C 141.940104 262.429688 137.710938 260 136.390625 258.890625 Z M 136.390625 258.890625 " transform="matrix(1.5,0,0,1.5,0,0)"/>
<path style="fill-rule:nonzero;fill:rgb(100%,100%,100%);fill-opacity:1;stroke-width:1;stroke-linecap:round;stroke-linejoin:round;stroke:rgb(14.901961%,19.607843%,21.960784%);stroke-opacity:1;stroke-miterlimit:4;" d="M 144.440104 174.630208 C 143.658854 173.070312 143.658854 171.820312 143.96875 169.630208 C 144.28125 167.440104 142.408854 162.130208 142.408854 162.130208 C 140.5 165.429688 134.979167 167.390625 132.539062 168.130208 C 129.848958 168.950521 133.78125 170.809896 133.359375 173.299479 C 132.940104 175.789062 127.570312 177.229167 127.570312 177.229167 C 127.570312 177.229167 126 174 123.820312 174 C 121.640625 174 120.091146 179 121.330729 181.651042 C 121.994792 183.161458 123.617188 184.013021 125.239583 183.700521 C 125.239583 183.700521 125.091146 188.390625 128.049479 189.789062 C 131.208333 191.296875 134.502604 192.5 137.890625 193.380208 C 139.760417 193.690104 141.630208 192.760417 142.408854 189.950521 C 143.020833 187.117188 143.4375 184.247396 143.658854 181.359375 C 144.96875 180.502604 146.174479 179.497396 147.25 178.359375 C 148 177.28125 145.21875 176.190104 144.440104 174.630208 Z M 144.440104 174.630208 " transform="matrix(1.5,0,0,1.5,0,0)"/>
<path style=" stroke:none;fill-rule:nonzero;fill:rgb(14.901961%,19.607843%,21.960784%);fill-opacity:1;" d="M 212.101562 262.050781 C 212.101562 263.339844 211.679688 264.375 211.171875 264.375 C 210.660156 264.375 210.238281 263.339844 210.238281 262.050781 C 210.238281 260.761719 210.660156 259.726562 211.171875 259.726562 C 211.679688 259.726562 212.101562 260.761719 212.101562 262.050781 Z M 212.101562 262.050781 "/>
<path style="fill:none;stroke-width:1;stroke-linecap:round;stroke-linejoin:round;stroke:rgb(14.901961%,19.607843%,21.960784%);stroke-opacity:1;stroke-miterlimit:4;" d="M 138.710938 172.119792 C 138.710938 172.119792 140.369792 170.25 141.609375 170.669271 " transform="matrix(1.5,0,0,1.5,0,0)"/>
<path style="fill:none;stroke-width:1;stroke-linecap:round;stroke-linejoin:round;stroke:rgb(14.901961%,19.607843%,21.960784%);stroke-opacity:1;stroke-miterlimit:4;" d="M 141.609375 184.940104 C 140.085938 185.401042 138.429688 185.020833 137.260417 183.940104 " transform="matrix(1.5,0,0,1.5,0,0)"/>
<path style="fill-rule:nonzero;fill:rgb(100%,100%,100%);fill-opacity:1;stroke-width:1;stroke-linecap:round;stroke-linejoin:round;stroke:rgb(14.901961%,19.607843%,21.960784%);stroke-opacity:1;stroke-miterlimit:4;" d="M 82.630208 379.739583 C 82.630208 379.739583 78.901042 387.21875 79.039062 388.239583 C 79.179688 389.260417 86.580729 394.619792 90.039062 396.5 C 93.5 398.380208 99.760417 398.679688 99.320312 396.070312 C 98.880208 393.460938 92.940104 391.71875 91.489583 387.799479 C 90.71875 385.773438 90.049479 383.705729 89.489583 381.609375 C 87.072917 381.645833 84.695312 380.997396 82.630208 379.739583 Z M 82.630208 379.739583 " transform="matrix(1.5,0,0,1.5,0,0)"/>
<path style="fill-rule:nonzero;fill:rgb(100%,100%,100%);fill-opacity:1;stroke-width:1;stroke-linecap:round;stroke-linejoin:round;stroke:rgb(14.901961%,19.607843%,21.960784%);stroke-opacity:1;stroke-miterlimit:4;" d="M 99.341146 396.109375 C 96.677083 396.466146 93.96875 396.083333 91.510417 395 C 86.140625 392.669271 80.940104 387.908854 79.510417 386.559896 C 79.255208 387.098958 79.09375 387.677083 79.03125 388.270833 C 79.179688 389.270833 86.570312 394.651042 90.03125 396.53125 C 93.489583 398.408854 99.700521 398.669271 99.341146 396.109375 Z M 99.341146 396.109375 " transform="matrix(1.5,0,0,1.5,0,0)"/>
</g>
</svg>
